<svg width="83" height="67" viewBox="0 0 83 67" fill="none" xmlns="http://www.w3.org/2000/svg">
<path d="M82.4593 34.0389L82.4336 43.1258L41.3516 67C34.8822 60.6356 35.2765 57.8053 41.3773 57.9132C24.4765 29.6518 56.3517 33.7591 82.4593 34.0389Z" fill="#26404F"/>
<path d="M41.3786 57.9132L41.353 67.0001L0 43.1249L0.025829 34.0381C18.9971 38.0585 46.6284 35.5043 41.3786 57.9132Z" fill="#1C323D"/>
<path d="M82.4607 34.0392L41.3781 57.9134L0.0257568 34.0383L41.1075 10.1641L82.4607 34.0392Z" fill="#324566"/>
<path d="M80.1449 22.5342L80.1206 33.703L41.3467 56.236C34.3701 50.0408 33.5673 46.0307 41.3709 45.0671C40.5668 30.3766 59.6822 26.1031 80.1449 22.5342Z" fill="#758DE9"/>
<path d="M41.3708 45.067L41.3466 56.2358L2.31689 33.702L2.34114 22.5332C19.1499 26.1646 45.203 20.3542 41.3708 45.067Z" fill="#5370E3"/>
<path d="M80.1444 22.5335L41.3702 45.067L2.34021 22.5326L41.1145 0L80.1444 22.5335Z" fill="#B0BDF2"/>
</svg>
